<?xml version="1.0" encoding="UTF-8"?>
<svg version="1.1" xmlns="http://www.w3.org/2000/svg" width="800" height="800">
<path d="M0 0 C34.44692978 -0.02290805 68.89385781 -0.04051941 103.34079356 -0.05106533 C107.41111499 -0.05231598 111.48143641 -0.05361031 115.55175781 -0.05493164 C116.36205731 -0.05519395 117.1723568 -0.05545626 118.00721082 -0.05572652 C131.11322203 -0.06007327 144.21922883 -0.06795535 157.32523742 -0.0771528 C170.78148276 -0.086517 184.2377258 -0.09206147 197.69397426 -0.09408849 C205.99164237 -0.09545797 214.28929803 -0.0997774 222.58696231 -0.10791647 C228.28336514 -0.11321807 233.97976157 -0.11479655 239.67616668 -0.11350138 C242.95859488 -0.11286332 246.24099693 -0.11436838 249.52342224 -0.11920547 C253.09255656 -0.12420591 256.6616383 -0.12297496 260.23077393 -0.12025452 C261.25415776 -0.12316736 262.2775416 -0.1260802 263.33193707 -0.12908131 C270.26404163 -0.11487244 277.10106144 0.33070249 284 1 C293.65648386 23.96314367 302.82980864 47.11179425 311.95658875 70.28971863 C312.29833633 71.15728287 312.64008392 72.02484711 312.9921875 72.91870117 C313.32057617 73.75396332 313.64896484 74.58922546 313.98730469 75.44979858 C314.69731065 77.23775808 315.41760885 79.02164864 316.14550781 80.80239868 C316.69609863 82.15185074 316.69609863 82.15185074 317.2578125 83.52856445 C317.59184082 84.33912796 317.92586914 85.14969147 318.27001953 85.9848175 C319 88 319 88 319 90 C258.61 90 198.22 90 136 90 C140.35319308 104.8124627 140.35319308 104.8124627 145.50073242 119.30761719 C145.91069962 120.37272522 145.91069962 120.37272522 146.32894897 121.45935059 C146.61227081 122.19463989 146.89559265 122.9299292 147.1875 123.6875 C147.79631193 125.28144871 148.40478078 126.87552849 149.01293945 128.46972656 C154.9527057 144.00406015 161.03183552 159.48476576 167.10736084 174.96636963 C172.41317426 188.48714905 177.68589977 202.02057301 182.9375 215.5625 C183.34292023 216.60791962 183.74834045 217.65333923 184.16604614 218.73043823 C189.11866788 231.50699573 194.03315225 244.29635365 198.87207031 257.11645508 C209.19392711 284.42685995 219.83150594 311.61903393 230.46484375 338.80932617 C234.46300493 349.03656471 238.41090865 359.28118307 242.32348633 369.54150391 C244.64760864 375.59597339 247.04757175 381.61612805 249.49609375 387.62109375 C249.79684311 388.35872452 250.09759247 389.09635529 250.40745544 389.8563385 C251.89406264 393.49760275 253.3868643 397.13620356 254.88745117 400.77172852 C255.42757659 402.0874003 255.96769728 403.40307403 256.5078125 404.71875 C256.98879395 405.88341797 257.46977539 407.04808594 257.96533203 408.24804688 C259 411 259 411 259 413 C259.66 413 260.32 413 261 413 C261.18039825 412.44520966 261.36079651 411.89041931 261.54666138 411.31881714 C263.26453442 406.09262644 265.11791741 400.94472188 267.1171875 395.8203125 C267.72448973 394.25156291 268.33174693 392.68279589 268.93896484 391.11401367 C269.25484558 390.30016205 269.57072632 389.48631042 269.8961792 388.64779663 C276.08519143 372.69633832 282.13351202 356.6974024 288.05029297 340.64306641 C288.31048218 339.93798447 288.57067139 339.23290253 288.83874512 338.50645447 C289.53750443 336.6117933 290.23439801 334.71644433 290.93115234 332.82104492 C292 330 292 330 293 328 C323.66979857 327.4704378 353.54957249 329.54705654 382 342 C382.66 342.66 383.32 343.32 384 344 C383.70018069 350.20323163 381.98121383 355.43215606 379.74609375 361.18359375 C379.41415009 362.05844925 379.08220642 362.93330475 378.74020386 363.83467102 C377.6480716 366.70571453 376.54302788 369.5715908 375.4375 372.4375 C374.66044112 374.47079551 373.88400228 376.50432808 373.1081543 378.53808594 C367.60753078 392.92988682 362.02160582 407.28903201 356.39892578 421.63354492 C350.31697053 437.15188347 344.31021154 452.69896756 338.3125 468.25 C337.82964701 469.50175211 337.34678778 470.75350181 336.86392212 472.00524902 C334.68633872 477.65069303 332.50929401 483.2963445 330.33325195 488.94238281 C329.94988678 489.92323853 329.56652161 490.90409424 329.17153931 491.91467285 C328.33271445 494.12377422 327.53681317 496.34936179 326.7696228 498.58435059 C326.35604523 499.75888794 325.94246765 500.93342529 325.51635742 502.14355469 C325.15305832 503.21595398 324.78975922 504.28835327 324.41545105 505.39324951 C322.63774873 508.66713623 321.49000293 508.90686209 318 510 C315.58990574 510.24888897 315.58990574 510.24888897 313.03529358 510.24723816 C312.06104935 510.25143265 311.08680511 510.25562714 310.08303833 510.25994873 C308.4971138 510.25151947 308.4971138 510.25151947 306.87915039 510.24291992 C305.75664383 510.24481827 304.63413727 510.24671661 303.47761536 510.24867249 C299.7675579 510.25237665 296.05769631 510.24167992 292.34765625 510.23046875 C289.76842776 510.2292765 287.18919884 510.22882388 284.60997009 510.2290802 C279.20389897 510.22751588 273.79789846 510.21947446 268.3918457 510.20581055 C262.15082129 510.19009402 255.90985845 510.18481225 249.66881567 510.1855461 C243.65509519 510.18615762 237.6413997 510.18093165 231.62768364 510.17275429 C229.07321735 510.16957292 226.51874925 510.16760145 223.96428108 510.16686058 C220.39290424 510.16469093 216.82160442 510.15593276 213.25024414 510.14526367 C212.19498535 510.14571686 211.13972656 510.14617004 210.05249023 510.14663696 C199.9251624 510.10243015 199.9251624 510.10243015 196 509 C194.51878031 506.55486294 193.61854168 504.59316692 192.6875 501.9375 C192.25775879 500.80834167 192.25775879 500.80834167 191.81933594 499.65637207 C190.8568491 497.11216264 189.92925823 494.55651452 189 492 C188.31638902 490.17676232 187.63011918 488.35451971 186.94140625 486.53320312 C185.43220346 482.53509471 183.9353294 478.53263996 182.4453125 474.52734375 C178.53107241 464.03902456 174.46395839 453.60912216 170.42041016 443.17016602 C168.51493522 438.24665198 166.61635904 433.32048898 164.7175293 428.39440918 C159.84296712 415.7506165 154.93768476 403.11925962 150 390.5 C142.60758251 371.60652656 135.3041935 352.67891634 128.00756836 333.74829102 C122.03276431 318.24799505 122.03276431 318.24799505 116.01171875 302.765625 C115.71597961 302.00854752 115.42024048 301.25147003 115.11553955 300.47145081 C114.54281886 299.0056226 113.97006588 297.53980701 113.39727783 296.07400513 C108.80405769 284.31825647 104.31346367 272.52992552 99.91210938 260.70098877 C91.22346571 237.35316599 82.08868095 214.18524457 72.94692993 191.01179504 C68.94608928 180.86924417 64.9638508 170.71956113 61 160.5625 C60.69072571 159.77033081 60.38145142 158.97816162 60.06280518 158.1619873 C53.49166094 141.32356308 47.00154259 124.4538811 40.50213623 107.587677 C34.76481984 92.70308345 28.99803119 77.83159698 23.125 63 C22.54082777 61.52336605 21.95668041 60.04672226 21.37255859 58.57006836 C19.2277345 53.14978117 17.08233474 47.72972146 14.93377686 42.31091309 C12.66822174 36.59624668 10.40953304 30.87894561 8.15936279 25.15820312 C7.4345306 23.31899841 6.70723827 21.48076113 5.97735596 19.64355469 C4.96949705 17.10594435 3.9701152 14.56515026 2.97265625 12.0234375 C2.51922096 10.89039688 2.51922096 10.89039688 2.05662537 9.73446655 C0.69128887 6.23030384 0 3.81402256 0 0 Z " fill="#455FE9" transform="translate(4,193)"/>
<path d="M0 0 C33.48708407 -0.02292541 66.97416617 -0.04052819 100.46125636 -0.05106533 C104.42127378 -0.05231593 108.38129119 -0.05361026 112.34130859 -0.05493164 C113.12962454 -0.05519395 113.91794049 -0.05545626 114.7301448 -0.05572652 C127.46809507 -0.06006917 140.2060408 -0.06794895 152.94398838 -0.0771528 C166.02960896 -0.08652848 179.11522717 -0.09206388 192.20085096 -0.09408849 C200.2651157 -0.09545561 208.32936758 -0.09976202 216.39362836 -0.10791647 C222.59371949 -0.11386375 228.79380098 -0.11444909 234.99389458 -0.11310768 C237.52533993 -0.11338137 240.05678579 -0.1153514 242.58822823 -0.11920547 C255.43267924 -0.13779135 268.19326154 -0.06564923 281 1 C280.41101784 5.36177 279.72480795 9.28596187 278.19921875 13.41796875 C277.61527344 15.00992065 277.61527344 15.00992065 277.01953125 16.6340332 C276.36017578 18.39299927 276.36017578 18.39299927 275.6875 20.1875 C275.20813956 21.47933892 274.72898128 22.77125287 274.25 24.06323242 C262.27340992 56.24295095 249.70877626 88.20797691 237.28491211 120.21679688 C227.48635796 145.46360626 217.73943748 170.73033555 208 196 C207.56989624 197.11586487 207.13979248 198.23172974 206.69665527 199.38140869 C196.88331069 224.84340106 187.10427304 250.31825896 177.375 275.8125 C176.9368396 276.96061157 176.4986792 278.10872314 176.04724121 279.29162598 C174.30041639 283.86899431 172.55371011 288.44640787 170.80703735 293.02383423 C160.64523449 319.65392605 150.47899826 346.2800771 140.08047485 372.81878662 C134.18519056 387.87345836 128.4287858 402.97881546 122.70141602 418.09805298 C116.12469144 435.45550967 109.48133856 452.78640629 102.79532623 470.10198975 C102.06914355 471.98279331 101.3432317 473.86370121 100.61737061 475.74462891 C99.25749689 479.26758728 97.89658614 482.79014274 96.53515625 486.3125 C96.13491745 487.34890625 95.73467865 488.3853125 95.3223114 489.453125 C94.57448753 491.38586562 93.82119437 493.31650202 93.06155396 495.24462891 C92.34308989 497.10947534 91.65854913 498.98768738 91.00558472 500.87646484 C90.68332916 501.77703613 90.36107361 502.67760742 90.02905273 503.60546875 C89.75673325 504.4049292 89.48441376 505.20438965 89.20384216 506.02807617 C87.55430502 508.73005962 85.97472918 509.02792135 83 510 C80.62114048 510.24888897 80.62114048 510.24888897 78.11122131 510.24723816 C76.67509743 510.25352989 76.67509743 510.25352989 75.20996094 510.25994873 C73.65208862 510.25151947 73.65208862 510.25151947 72.06274414 510.24291992 C70.95974472 510.24481827 69.8567453 510.24671661 68.72032166 510.24867249 C65.07519415 510.25237627 61.43026605 510.24168045 57.78515625 510.23046875 C55.25076826 510.22927648 52.71637983 510.22882389 50.18199158 510.2290802 C44.87007674 510.22751595 39.5582309 510.21947508 34.24633789 510.20581055 C28.11437637 510.19009421 21.98247752 510.18481225 15.85049731 510.1855461 C9.94143043 510.18615766 4.03238153 510.18093127 -1.87668037 510.17275429 C-4.38648926 510.16957318 -6.89629997 510.16760152 -9.40611076 510.16686058 C-12.91522212 510.16469064 -16.42425512 510.15593185 -19.93334961 510.14526367 C-20.96990692 510.14571686 -22.00646423 510.14617004 -23.07443237 510.14663696 C-33.5033648 510.10031581 -33.5033648 510.10031581 -37 509 C-38.45729065 507.04734802 -38.45729065 507.04734802 -39.45922852 504.45874023 C-40.03784889 503.01701195 -40.03784889 503.01701195 -40.62815857 501.54615784 C-41.0202803 500.49838669 -41.41240204 499.45061554 -41.81640625 498.37109375 C-42.45673546 496.74729042 -42.45673546 496.74729042 -43.11000061 495.09068298 C-44.42818365 491.73505172 -45.71438818 488.36821977 -47 485 C-47.75615813 483.07198142 -48.51496997 481.14500079 -49.27685547 479.21923828 C-51.52836828 473.51227004 -53.73475131 467.78842993 -55.9375 462.0625 C-56.75310999 459.94893712 -57.56903573 457.83549605 -58.38525391 455.72216797 C-59.65093911 452.44488805 -60.9163599 449.16750849 -62.18054199 445.88964844 C-65.10522695 438.30773429 -68.04597064 430.7322055 -70.99609375 423.16015625 C-85.07272548 387.02019835 -85.07272548 387.02019835 -91.77349854 369.19818115 C-92.33189589 367.71567241 -92.8931195 366.23422445 -93.4574585 364.75396729 C-98.61437781 351.20746233 -98.61437781 351.20746233 -99 344 C-74.77303368 326.69502406 -38.28027032 327.60713452 -10 328 C-3.84780397 341.44640392 1.66781479 355.08541446 7 368.875 C8.51924558 372.78968009 10.04080838 376.70345768 11.5625 380.6171875 C11.92972168 381.5629364 12.29694336 382.5086853 12.67529297 383.48309326 C16.38230735 393.01597125 20.18117086 402.51145826 24 412 C26.50581219 408.94635292 27.96342941 405.99656416 29.3984375 402.32421875 C29.86685059 401.13231934 30.33526367 399.94041992 30.81787109 398.71240234 C31.33716618 397.37086579 31.85619867 396.02922757 32.375 394.6875 C32.93411101 393.25460431 33.49352975 391.82182866 34.05322266 390.38916016 C41.42883987 371.46110713 48.62807843 352.46396307 55.859375 333.48046875 C60.09040337 322.37342 64.34871141 311.27718626 68.625 300.1875 C74.3363037 285.37106779 79.98906767 270.53275489 85.625 255.6875 C86.03248474 254.61417419 86.43996948 253.54084839 86.85980225 252.43499756 C87.26426575 251.36960754 87.66872925 250.30421753 88.08544922 249.20654297 C92.62934839 237.23766364 97.17689522 225.27025547 101.75 213.3125 C102.13316879 212.31058121 102.13316879 212.31058121 102.52407837 211.28842163 C105.52946467 203.43241146 108.54469063 195.58021176 111.56640625 187.73046875 C111.87191406 186.93678894 112.17742187 186.14310913 112.4921875 185.32537842 C113.74476027 182.07158656 114.99740151 178.81782148 116.25091553 175.56439209 C119.92043385 166.03975115 123.57227364 156.50875576 127.19140625 146.96484375 C128.58578232 143.28900361 129.98027794 139.61320888 131.375 135.9375 C131.7127948 135.04705994 132.0505896 134.15661987 132.39862061 133.23919678 C136.62531847 122.10733293 140.90991995 111.01229196 145.52685547 100.03491211 C145.8467041 99.27315674 146.16655273 98.51140137 146.49609375 97.7265625 C146.76607178 97.09314941 147.0360498 96.45973633 147.31420898 95.80712891 C148.04000473 93.89458347 148.51879045 91.98642093 149 90 C148.11762224 90.00092179 147.23524448 90.00184359 146.32612801 90.00279331 C124.83372922 90.0248992 103.34133241 90.04143626 81.84892464 90.05181217 C71.45526852 90.05696354 61.06161999 90.06398413 50.66796875 90.07543945 C41.60650784 90.08542173 32.54505244 90.09186186 23.48358619 90.09408849 C18.68778227 90.09538958 13.89199409 90.09843729 9.09619522 90.10573006 C4.57696649 90.11254621 0.05775992 90.11460562 -4.46147346 90.11310768 C-6.1149832 90.1133815 -7.76849371 90.11535329 -9.42199898 90.11920547 C-17.67567776 90.1374817 -25.79446742 90.02744889 -34 89 C-32.7975918 82.98621655 -31.20166695 77.4470433 -28.8671875 71.77734375 C-28.55282745 70.99710342 -28.23846741 70.2168631 -27.9145813 69.41297913 C-26.90791699 66.91845098 -25.89185405 64.42788931 -24.875 61.9375 C-24.24803626 60.3902419 -23.62173202 58.8427164 -22.99609375 57.29492188 C-21.99768017 54.82499482 -20.9984978 52.35539263 -19.99667168 49.8868475 C-15.85862257 39.68156904 -11.77551788 29.4543486 -7.68798828 19.22875977 C-6.93992857 17.3579036 -6.19184626 15.48705646 -5.44374084 13.61621857 C-3.62890023 9.07758309 -1.81436474 4.53882574 0 0 Z " fill="#455FE9" transform="translate(515,193)"/>
<path d="M0 0 C2.39452118 -0.00067598 4.78904229 -0.00164844 7.18356323 -0.00289917 C12.16714134 -0.00436175 17.15070136 -0.00226802 22.13427734 0.00244141 C28.47233581 0.00814403 34.81035196 0.00484705 41.14840889 -0.00113106 C46.08165802 -0.00477051 51.01489737 -0.00358275 55.94814682 -0.00100327 C58.28336467 -0.00034365 60.61858345 -0.00112798 62.9538002 -0.00348282 C76.21188541 -0.01392608 89.38914762 0.20569064 102.6171875 1.1328125 C103.9480786 3.79459471 103.72987743 5.82020646 103.71484375 8.796875 C103.71162109 9.91835938 103.70839844 11.03984375 103.70507812 12.1953125 C103.69669922 13.3709375 103.68832031 14.5465625 103.6796875 15.7578125 C103.67517578 16.94117188 103.67066406 18.12453125 103.66601562 19.34375 C103.65420217 22.27348757 103.63773008 25.20312522 103.6171875 28.1328125 C87.42113136 28.15631723 71.22508087 28.17387706 55.02901173 28.18462467 C47.50655861 28.18975068 39.98411617 28.19672169 32.46166992 28.20825195 C25.8945236 28.21831303 19.32738502 28.22469269 12.7602312 28.22690099 C9.29261132 28.228189 5.82501358 28.23115043 2.35740089 28.23854256 C-13.25554031 28.26809225 -28.79616268 28.07952555 -44.3828125 27.1328125 C-46.08288204 23.93552488 -46.63083822 21.82614816 -46.61328125 18.18359375 C-46.61134766 17.25353516 -46.60941406 16.32347656 -46.60742188 15.36523438 C-46.59517578 14.40166016 -46.58292969 13.43808594 -46.5703125 12.4453125 C-46.56966797 11.47013672 -46.56902344 10.49496094 -46.56835938 9.49023438 C-46.52315848 2.27315848 -46.52315848 2.27315848 -45.3828125 1.1328125 C-42.5511993 0.8862631 -39.74462495 0.70817437 -36.90673828 0.57861328 C-35.57021052 0.51544765 -35.57021052 0.51544765 -34.20668221 0.45100594 C-22.80770476 -0.0386424 -11.40729273 -0.01152638 0 0 Z " fill="#455FE9" transform="translate(371.3828125,413.8671875)"/>
<path d="M0 0 C49.5 0 99 0 150 0 C150 8.58 150 17.16 150 26 C130.59008547 26.02311759 111.18017481 26.0409785 91.77024937 26.05181217 C82.75853063 26.05697542 73.74682058 26.06401866 64.73510742 26.07543945 C56.8834045 26.08538541 49.03170786 26.09185322 41.17999882 26.09408849 C37.01996548 26.09539575 32.85995015 26.09848255 28.69992256 26.10573006 C24.78891588 26.11248889 20.87793473 26.11461724 16.96692276 26.11310768 C15.52732772 26.11338407 14.08773187 26.11539001 12.64814186 26.11920547 C10.69105767 26.12414051 8.73395996 26.12239807 6.77687073 26.12025452 C5.67901528 26.12117631 4.58115984 26.1220981 3.45003605 26.12304783 C1 26 1 26 0 25 C0 16.75 0 8.5 0 0 Z " fill="#455FE9" transform="translate(325,362)"/>
</svg>
